<svg width="44" height="44" viewBox="0 0 44 44" fill="none" xmlns="http://www.w3.org/2000/svg">
<path d="M42.936 5.3359C40.9717 4.60385 39.4285 3.04936 38.7019 1.07179C38.4654 0.427564 37.8556 0 37.1736 0C36.4918 0 35.882 0.427564 35.6453 1.07115C34.9183 3.04936 33.3751 4.60385 31.4107 5.3359C30.7714 5.57436 30.3468 6.18846 30.3468 6.875C30.3468 7.56154 30.7714 8.17564 31.4107 8.4141C33.3751 9.14615 34.9183 10.7006 35.6453 12.6788C35.882 13.3224 36.4918 13.75 37.1736 13.75C37.8556 13.75 38.4654 13.3224 38.7019 12.6782C39.4285 10.7006 40.9717 9.14615 42.936 8.4141C43.5754 8.17564 44 7.56154 44 6.875C44 6.18846 43.5754 5.57436 42.936 5.3359ZM37.1736 8.76154C36.6312 8.05449 36.002 7.42115 35.3003 6.875C36.002 6.32885 36.6312 5.69551 37.1736 4.98846C37.7156 5.69487 38.3451 6.32885 39.0465 6.875C38.3451 7.42115 37.7156 8.05513 37.1736 8.76154ZM23.2578 15.2679L22.0729 12.0429C21.8361 11.3987 21.2266 10.9712 20.5446 10.9712C19.8629 10.9712 19.2531 11.3987 19.0163 12.0423L17.8311 15.2679C16.9654 17.6237 15.1271 19.4756 12.7875 20.3474L9.58484 21.541C8.94545 21.7795 8.52088 22.3936 8.52088 23.0801C8.52088 23.7667 8.94545 24.3808 9.58516 24.6192L12.7875 25.8122C15.1271 26.684 16.9654 28.5359 17.8311 30.8923L19.0163 34.1173C19.2531 34.7609 19.8629 35.1885 20.5446 35.1885C21.2266 35.1885 21.8361 34.7609 22.0729 34.1167L23.2578 30.8923C24.1238 28.5359 25.9621 26.684 28.3013 25.8122L31.504 24.6192C32.1437 24.3808 32.5683 23.7667 32.5683 23.0801C32.5683 22.3936 32.1437 21.7795 31.5043 21.541L28.3016 20.3474C25.9621 19.4756 24.1238 17.6237 23.2578 15.2679ZM20.5446 28.9173C19.3676 26.3346 17.3136 24.2654 14.7484 23.0801C17.3132 21.8942 19.3676 19.825 20.5446 17.2423C21.7215 19.8256 23.7759 21.8942 26.3408 23.0795C23.7759 24.2654 21.7215 26.334 20.5446 28.9173ZM41.0892 19.6071V35.3269C41.0892 40.109 37.2257 44 32.4772 44H8.61191C3.86341 44 0 40.109 0 35.3269V11.2929C0 6.5109 3.86341 2.62051 8.61191 2.62051H24.379C25.2791 2.62051 26.0085 3.35513 26.0085 4.26154C26.0085 5.16795 25.2791 5.90256 24.379 5.90256H8.61191C5.66033 5.90256 3.25902 8.32051 3.25902 11.2929V35.3269C3.25902 38.2994 5.66033 40.7179 8.61191 40.7179H32.4772C35.4288 40.7179 37.8301 38.2994 37.8301 35.3269V19.6071C37.8301 18.7006 38.5596 17.966 39.4596 17.966C40.3597 17.966 41.0892 18.7006 41.0892 19.6071Z" fill="#251D4C"/>
</svg>
