<svg width="32" height="42" viewBox="0 0 32 42" fill="none" xmlns="http://www.w3.org/2000/svg">
<path d="M16.1491 17.2143C17.8375 17.217 19.4888 16.7146 20.894 15.7705C22.2992 14.8264 23.3951 13.4831 24.0431 11.9106C24.6912 10.3381 24.8621 8.60709 24.5344 6.93655C24.2067 5.26601 23.3951 3.73106 22.2021 2.52593C21.0092 1.3208 19.4887 0.499658 17.8329 0.166414C16.1772 -0.16683 14.4606 0.00280099 12.9004 0.653841C11.3403 1.30488 10.0067 2.40807 9.06836 3.82381C8.13005 5.23954 7.6292 6.9042 7.6292 8.60712C7.62919 10.8875 8.52638 13.0746 10.1238 14.6883C11.7212 16.3021 13.8882 17.2106 16.1491 17.2143ZM16.1491 2.81306C17.2892 2.81029 18.4045 3.14892 19.3536 3.78606C20.3027 4.42319 21.0429 5.33014 21.4805 6.392C21.9181 7.45385 22.0333 8.62282 21.8115 9.75077C21.5898 10.8787 21.041 11.9149 20.2349 12.728C19.4287 13.5411 18.4013 14.0946 17.283 14.3182C16.1646 14.5419 15.0056 14.4257 13.9528 13.9844C12.9 13.543 12.0008 12.7964 11.3691 11.8392C10.7374 10.8819 10.4017 9.75704 10.4044 8.60712C10.4081 7.07158 11.0145 5.59998 12.091 4.51418C13.1676 3.42838 14.6266 2.81675 16.1491 2.81306ZM31.94 36.136C30.2749 40.4605 22.6986 42 16.1491 42C9.59959 42 2.02328 40.4605 0.358151 36.136C-0.529915 33.8267 0.261019 30.3979 2.42568 27.1929C3.93143 24.9006 5.96759 23.0121 8.35846 21.6906C10.7493 20.3691 13.4231 19.6541 16.1491 19.6075C19.3663 19.6785 22.4973 20.67 25.1775 22.4663C27.8577 24.2627 29.9767 26.79 31.2878 29.7541C31.3815 29.9238 31.439 30.1114 31.4568 30.3048C31.4747 30.4983 31.4524 30.6933 31.3914 30.8776C31.3304 31.0618 31.232 31.2313 31.1026 31.3751C30.9731 31.5189 30.8154 31.634 30.6394 31.713C30.4634 31.792 30.2731 31.8331 30.0805 31.8339C29.8879 31.8346 29.6972 31.7949 29.5207 31.7173C29.3441 31.6397 29.1855 31.5258 29.055 31.383C28.9244 31.2402 28.8248 31.0715 28.7624 30.8877C27.6508 28.4302 25.8812 26.3343 23.6529 24.836C21.4245 23.3377 18.8258 22.4963 16.1491 22.4065C13.876 22.453 11.6483 23.0571 9.65859 24.1665C7.66886 25.276 5.97695 26.8576 4.7291 28.7744C2.86971 31.5035 2.49506 33.9807 2.93909 35.1283C3.85491 37.4935 9.40533 39.2009 16.1491 39.2009C22.8928 39.2009 28.4433 37.4935 29.3591 35.1283C29.5094 34.8093 29.7737 34.5593 30.0991 34.4287C30.4244 34.298 30.7867 34.2962 31.1133 34.4238C31.4399 34.5513 31.7066 34.7986 31.8599 35.1162C32.0133 35.4337 32.0419 35.798 31.94 36.136Z" fill="#251D4C"/>
</svg>
